# xmcd
#
# Track frame offsets:
#	150
#	14401
#	25277
#	40151
#	46151
#	59127
#	73228
#	94003
#	109303
#	124905
#	132855
#	151905
#	161881
#
# Disc length: 2482 seconds
#
# Revision: 1
# Processed by: cddbd v1.4PL0 Copyright (c) Steve Scherf et al.
# Submitted via: EasyCDDAExtractor 5.0.6
#
DISCID=b809b00d
DTITLE=John Lee Hooker and Miles Davis - The Hot Spot - Original Motion Picture 
DTITLE=Soundtrack
DYEAR=1990
DGENRE=Blues
TTITLE0=Coming to town 
TTITLE1=Empty bank 
TTITLE2=Harry's philosophy 
TTITLE3=Dolly's arrival 
TTITLE4=Harry and Dolly
TTITLE5=Sawmill 
TTITLE6=Bank robbery 
TTITLE7=Moanin'
TTITLE8=Gloria's story
TTITLE9=Harry sets up Sutton 
TTITLE10=Murder 
TTITLE11=Blackmail 
TTITLE12=End credits 
EXTD=
EXTT0=
EXTT1=
EXTT2=
EXTT3=
EXTT4=
EXTT5=
EXTT6=
EXTT7=
EXTT8=
EXTT9=
EXTT10=
EXTT11=
EXTT12=
PLAYORDER=
